<svg xmlns="http://www.w3.org/2000/svg" viewBox="0 0 400 220" fill="none">
  <circle cx="200" cy="90" r="70" fill="#005087"/>
  <circle cx="200" cy="90" r="60" fill="#FFFFFF"/>
  <path d="M200 35C230.38 35 255 59.62 255 90C255 120.38 230.38 145 200 145C169.62 145 145 120.38 145 90C145 59.62 169.62 35 200 35ZM200 40C227.596 40 250 62.404 250 90C250 117.596 227.596 140 200 140C172.404 140 150 117.596 150 90C150 62.404 172.404 40 200 40Z" fill="#005087"/>
  <text x="160" y="95" font-family="Arial, sans-serif" font-size="30" font-weight="bold" fill="#005087">ISO</text>
  <text x="200" y="170" font-family="Arial, sans-serif" font-size="24" font-weight="bold" fill="#005087" text-anchor="middle">
    ISO 9001:2015
  </text>
  <text x="200" y="195" font-family="Arial, sans-serif" font-size="16" fill="#333333" text-anchor="middle">
    Quality Management System
  </text>
</svg> 