<svg width="200" height="50" viewBox="0 0 200 50" fill="none" xmlns="http://www.w3.org/2000/svg">
  <!-- Clean Background Rectangle -->
  <rect x="10" y="10" width="40" height="30" rx="15" fill="#012169"/>
  
  <!-- G letter for Greenwich -->
  <path d="M30 15C25.0294 15 21 19.0294 21 24C21 28.9706 25.0294 33 30 33C32.8273 33 35.3545 31.6545 36.9654 29.5H32C31.4477 29.5 31 29.0523 31 28.5C31 27.9477 31.4477 27.5 32 27.5H39C39.5523 27.5 40 27.9477 40 28.5V35.5C40 36.0523 39.5523 36.5 39 36.5C38.4477 36.5 38 36.0523 38 35.5V31.3781C36.0224 34.0326 33.2205 36 30 36C23.3726 36 18 30.6274 18 24C18 17.3726 23.3726 12 30 12C34.4784 12 38.3684 14.5926 40.2426 18.3574C40.4792 18.8723 40.2878 19.493 39.7728 19.7297C39.2579 19.9663 38.6372 19.7749 38.4006 19.2599C36.8423 16.1289 33.6531 14 30 14V15Z" fill="#FFFFFF"/>
</svg> 